<svg xmlns="http://www.w3.org/2000/svg" width="200" height="200" viewBox="0 0 200 200">
  <defs>
    <linearGradient id="gradient" x1="0%" y1="0%" x2="100%" y2="0%">
      <stop offset="0%" stop-color="#4361ee" />
      <stop offset="100%" stop-color="#4cc9f0" />
    </linearGradient>
  </defs>
  <g transform="translate(20, 20)">
    <!-- Outer circle -->
    <circle cx="80" cy="80" r="75" fill="none" stroke="url(#gradient)" stroke-width="4" />
    
    <!-- Inner hexagon -->
    <polygon points="80,30 120,55 120,105 80,130 40,105 40,55" fill="none" stroke="url(#gradient)" stroke-width="3" />
    
    <!-- Central node -->
    <circle cx="80" cy="80" r="15" fill="url(#gradient)" />
    
    <!-- Vector lines -->
    <line x1="80" y1="30" x2="80" y2="65" stroke="#7209b7" stroke-width="2" />
    <line x1="120" y1="55" x2="95" y2="80" stroke="#7209b7" stroke-width="2" />
    <line x1="120" y1="105" x2="95" y2="80" stroke="#7209b7" stroke-width="2" />
    <line x1="80" y1="130" x2="80" y2="95" stroke="#7209b7" stroke-width="2" />
    <line x1="40" y1="105" x2="65" y2="80" stroke="#7209b7" stroke-width="2" />
    <line x1="40" y1="55" x2="65" y2="80" stroke="#7209b7" stroke-width="2" />
    
    <!-- Small nodes -->
    <circle cx="80" cy="30" r="5" fill="#00f5d4" />
    <circle cx="120" cy="55" r="5" fill="#00f5d4" />
    <circle cx="120" cy="105" r="5" fill="#00f5d4" />
    <circle cx="80" cy="130" r="5" fill="#00f5d4" />
    <circle cx="40" cy="105" r="5" fill="#00f5d4" />
    <circle cx="40" cy="55" r="5" fill="#00f5d4" />
  </g>
</svg>
