<svg xmlns="http://www.w3.org/2000/svg" width="32" height="32" viewBox="0 0 32 32">
  <defs>
    <linearGradient id="gradient" x1="0%" y1="0%" x2="100%" y2="0%">
      <stop offset="0%" stop-color="#4361ee" />
      <stop offset="100%" stop-color="#4cc9f0" />
    </linearGradient>
  </defs>
  <g transform="translate(2, 2)">
    <!-- Outer circle -->
    <circle cx="14" cy="14" r="13" fill="none" stroke="url(#gradient)" stroke-width="1" />
    
    <!-- Inner hexagon -->
    <polygon points="14,5 21,9.5 21,18.5 14,23 7,18.5 7,9.5" fill="none" stroke="url(#gradient)" stroke-width="0.8" />
    
    <!-- Central node -->
    <circle cx="14" cy="14" r="3" fill="url(#gradient)" />
    
    <!-- Vector lines -->
    <line x1="14" y1="5" x2="14" y2="11" stroke="#7209b7" stroke-width="0.6" />
    <line x1="21" y1="9.5" x2="17" y2="14" stroke="#7209b7" stroke-width="0.6" />
    <line x1="21" y1="18.5" x2="17" y2="14" stroke="#7209b7" stroke-width="0.6" />
    <line x1="14" y1="23" x2="14" y2="17" stroke="#7209b7" stroke-width="0.6" />
    <line x1="7" y1="18.5" x2="11" y2="14" stroke="#7209b7" stroke-width="0.6" />
    <line x1="7" y1="9.5" x2="11" y2="14" stroke="#7209b7" stroke-width="0.6" />
    
    <!-- Small nodes -->
    <circle cx="14" cy="5" r="1" fill="#00f5d4" />
    <circle cx="21" cy="9.5" r="1" fill="#00f5d4" />
    <circle cx="21" cy="18.5" r="1" fill="#00f5d4" />
    <circle cx="14" cy="23" r="1" fill="#00f5d4" />
    <circle cx="7" cy="18.5" r="1" fill="#00f5d4" />
    <circle cx="7" cy="9.5" r="1" fill="#00f5d4" />
  </g>
</svg>
