<svg xmlns="http://www.w3.org/2000/svg" width="800" height="400" viewBox="0 0 800 400">
  <defs>
    <linearGradient id="bg-gradient" x1="0%" y1="0%" x2="100%" y2="100%">
      <stop offset="0%" stop-color="#0f1624" />
      <stop offset="100%" stop-color="#1a2332" />
    </linearGradient>
    <linearGradient id="grid-gradient" x1="0%" y1="0%" x2="100%" y2="0%">
      <stop offset="0%" stop-color="#4361ee" stop-opacity="0.1" />
      <stop offset="100%" stop-color="#4cc9f0" stop-opacity="0.1" />
    </linearGradient>
    <linearGradient id="agent-gradient" x1="0%" y1="0%" x2="100%" y2="0%">
      <stop offset="0%" stop-color="#4361ee" />
      <stop offset="100%" stop-color="#7209b7" />
    </linearGradient>
    <linearGradient id="accent-gradient" x1="0%" y1="0%" x2="100%" y2="0%">
      <stop offset="0%" stop-color="#4cc9f0" />
      <stop offset="100%" stop-color="#00f5d4" />
    </linearGradient>
  </defs>
  
  <!-- Background -->
  <rect width="800" height="400" fill="url(#bg-gradient)" />
  
  <!-- Grid pattern -->
  <g stroke="url(#grid-gradient)" stroke-width="1">
    <g id="vertical-lines">
      <line x1="50" y1="0" x2="50" y2="400" />
      <line x1="100" y1="0" x2="100" y2="400" />
      <line x1="150" y1="0" x2="150" y2="400" />
      <line x1="200" y1="0" x2="200" y2="400" />
      <line x1="250" y1="0" x2="250" y2="400" />
      <line x1="300" y1="0" x2="300" y2="400" />
      <line x1="350" y1="0" x2="350" y2="400" />
      <line x1="400" y1="0" x2="400" y2="400" />
      <line x1="450" y1="0" x2="450" y2="400" />
      <line x1="500" y1="0" x2="500" y2="400" />
      <line x1="550" y1="0" x2="550" y2="400" />
      <line x1="600" y1="0" x2="600" y2="400" />
      <line x1="650" y1="0" x2="650" y2="400" />
      <line x1="700" y1="0" x2="700" y2="400" />
      <line x1="750" y1="0" x2="750" y2="400" />
    </g>
    <g id="horizontal-lines">
      <line x1="0" y1="50" x2="800" y2="50" />
      <line x1="0" y1="100" x2="800" y2="100" />
      <line x1="0" y1="150" x2="800" y2="150" />
      <line x1="0" y1="200" x2="800" y2="200" />
      <line x1="0" y1="250" x2="800" y2="250" />
      <line x1="0" y1="300" x2="800" y2="300" />
      <line x1="0" y1="350" x2="800" y2="350" />
    </g>
  </g>
  
  <!-- AI Agent 1 (left) -->
  <g transform="translate(200, 200)">
    <!-- Agent body -->
    <circle cx="0" cy="0" r="60" fill="url(#agent-gradient)" opacity="0.8" />
    
    <!-- Agent face -->
    <circle cx="-15" cy="-15" r="8" fill="white" opacity="0.8" />
    <circle cx="15" cy="-15" r="8" fill="white" opacity="0.8" />
    <path d="M -20,15 Q 0,30 20,15" stroke="white" stroke-width="3" fill="none" />
    
    <!-- Agent glow -->
    <circle cx="0" cy="0" r="70" fill="none" stroke="url(#agent-gradient)" stroke-width="2" opacity="0.5" />
    
    <!-- Vector connections -->
    <line x1="60" y1="0" x2="140" y2="0" stroke="#4cc9f0" stroke-width="2" stroke-dasharray="5,5" />
    <line x1="42" y1="42" x2="99" y2="99" stroke="#4cc9f0" stroke-width="2" stroke-dasharray="5,5" />
    <line x1="0" y1="60" x2="0" y2="140" stroke="#4cc9f0" stroke-width="2" stroke-dasharray="5,5" />
  </g>
  
  <!-- AI Agent 2 (right) -->
  <g transform="translate(600, 200)">
    <!-- Agent body -->
    <circle cx="0" cy="0" r="60" fill="url(#accent-gradient)" opacity="0.8" />
    
    <!-- Agent face -->
    <circle cx="-15" cy="-15" r="8" fill="white" opacity="0.8" />
    <circle cx="15" cy="-15" r="8" fill="white" opacity="0.8" />
    <path d="M -20,15 Q 0,30 20,15" stroke="white" stroke-width="3" fill="none" />
    
    <!-- Agent glow -->
    <circle cx="0" cy="0" r="70" fill="none" stroke="url(#accent-gradient)" stroke-width="2" opacity="0.5" />
    
    <!-- Vector connections -->
    <line x1="-60" y1="0" x2="-140" y2="0" stroke="#00f5d4" stroke-width="2" stroke-dasharray="5,5" />
    <line x1="-42" y1="42" x2="-99" y2="99" stroke="#00f5d4" stroke-width="2" stroke-dasharray="5,5" />
    <line x1="0" y1="-60" x2="0" y2="-140" stroke="#00f5d4" stroke-width="2" stroke-dasharray="5,5" />
  </g>
  
  <!-- Vector nodes -->
  <circle cx="400" cy="200" r="15" fill="#7209b7" opacity="0.8" />
  <circle cx="400" cy="200" r="20" fill="none" stroke="#7209b7" stroke-width="2" opacity="0.5" />
  
  <circle cx="340" cy="140" r="10" fill="#4361ee" opacity="0.8" />
  <circle cx="340" cy="140" r="15" fill="none" stroke="#4361ee" stroke-width="2" opacity="0.5" />
  
  <circle cx="460" cy="140" r="10" fill="#4cc9f0" opacity="0.8" />
  <circle cx="460" cy="140" r="15" fill="none" stroke="#4cc9f0" stroke-width="2" opacity="0.5" />
  
  <circle cx="340" cy="260" r="10" fill="#00f5d4" opacity="0.8" />
  <circle cx="340" cy="260" r="15" fill="none" stroke="#00f5d4" stroke-width="2" opacity="0.5" />
  
  <circle cx="460" cy="260" r="10" fill="#7209b7" opacity="0.8" />
  <circle cx="460" cy="260" r="15" fill="none" stroke="#7209b7" stroke-width="2" opacity="0.5" />
  
  <!-- Vector connections between nodes -->
  <line x1="400" y1="200" x2="340" y2="140" stroke="#4361ee" stroke-width="2" />
  <line x1="400" y1="200" x2="460" y2="140" stroke="#4cc9f0" stroke-width="2" />
  <line x1="400" y1="200" x2="340" y2="260" stroke="#00f5d4" stroke-width="2" />
  <line x1="400" y1="200" x2="460" y2="260" stroke="#7209b7" stroke-width="2" />
  
  <!-- Play button overlay for video -->
  <g transform="translate(400, 200)">
    <circle cx="0" cy="0" r="40" fill="rgba(0,0,0,0.5)" />
    <polygon points="15,0 -10,-20 -10,20" fill="white" transform="translate(5,0)" />
  </g>
</svg>
